<?xml version="1.0" encoding="UTF-8"?><svg xmlns="http://www.w3.org/2000/svg" xmlns:xlink="http://www.w3.org/1999/xlink" viewBox="0 0 1212.25 329.17"><defs><style>.h{fill:url(#c);}.i{fill:#fff;}.j{fill:#90f440;}.k{fill:url(#b);mix-blend-mode:multiply;}.l{fill:url(#d);stroke:url(#e);}.l,.m{stroke-miterlimit:10;stroke-width:2px;}.m{fill:url(#f);stroke:url(#g);}.n{isolation:isolate;}</style><linearGradient id="b" x1="6000.53" y1="129.08" x2="6064.57" y2="193.12" gradientTransform="translate(6231.53) rotate(-180) scale(1 -1)" gradientUnits="userSpaceOnUse"><stop offset=".11" stop-color="#fff"/><stop offset=".61" stop-color="#000"/><stop offset=".95" stop-color="#fff"/></linearGradient><linearGradient id="c" x1="5895.33" y1="161.5" x2="6170.99" y2="161.5" gradientTransform="translate(6231.53) rotate(-180) scale(1 -1)" gradientUnits="userSpaceOnUse"><stop offset="0" stop-color="#90f440"/><stop offset=".37" stop-color="#90f440"/><stop offset="1" stop-color="#90f440"/></linearGradient><linearGradient id="d" x1="336.2" y1="161.5" x2="293.55" y2="161.5" gradientTransform="matrix(1, 0, 0, 1, 0, 0)" xlink:href="#c"/><linearGradient id="e" x1="336.2" y1="161.5" x2="293.55" y2="161.5" gradientTransform="matrix(1, 0, 0, 1, 0, 0)" xlink:href="#c"/><linearGradient id="f" x1="103.19" y1="161.25" x2="60.54" y2="161.25" gradientTransform="matrix(1, 0, 0, 1, 0, 0)" xlink:href="#c"/><linearGradient id="g" x1="103.19" y1="161.25" x2="60.54" y2="161.25" gradientTransform="matrix(1, 0, 0, 1, 0, 0)" xlink:href="#c"/></defs><g class="n"><g id="a"><g><g><g><path class="i" d="M594.67,101.83h20.94v67.69c0,6.2,.85,11.65,2.57,16.37,1.71,4.72,4.02,8.41,6.94,11.1,2.91,2.68,6.1,4.67,9.57,5.96,3.47,1.29,7.19,1.94,11.17,1.94s7.7-.65,11.17-1.94c3.47-1.3,6.68-3.28,9.64-5.96,2.96-2.68,5.27-6.38,6.94-11.1,1.67-4.72,2.5-10.17,2.5-16.37V101.83h21.08v67.69c0,8.51-1.48,16.37-4.44,23.58-2.96,7.21-6.84,13.15-11.65,17.82-4.81,4.67-10.26,8.32-16.37,10.96-6.1,2.63-12.37,3.95-18.79,3.95s-12.69-1.32-18.79-3.95c-6.1-2.64-11.58-6.29-16.44-10.96-4.86-4.67-8.74-10.61-11.65-17.82-2.91-7.21-4.37-15.07-4.37-23.58V101.83Z"/><path class="i" d="M730.83,110.16c8.88-5.55,18.56-8.32,29.06-8.32s20.18,2.77,29.06,8.32c8.88,5.55,15.86,13.04,20.94,22.47,5.08,9.43,7.63,19.6,7.63,30.52,0,8.14-1.43,15.93-4.3,23.37-2.87,7.44-6.98,14.03-12.34,19.77-5.36,5.83-11.61,10.33-18.73,13.52-7.12,3.19-14.54,4.79-22.26,4.79s-15.14-1.6-22.26-4.79c-7.12-3.19-13.36-7.7-18.73-13.52-5.36-5.73-9.48-12.32-12.34-19.77-2.87-7.44-4.3-15.23-4.3-23.37,0-10.91,2.54-21.08,7.63-30.52,5.09-9.43,12.07-16.92,20.95-22.47Zm54.93,24.34c-7.21-7.81-15.84-11.72-25.87-11.72s-18.66,3.91-25.87,11.72c-7.21,7.82-10.82,17.36-10.82,28.64,0,5.46,.97,10.7,2.91,15.74,1.94,5.04,4.67,9.46,8.18,13.25,7.12,7.67,15.65,11.51,25.59,11.51s18.52-3.84,25.73-11.51c3.42-3.79,6.1-8.21,8.04-13.25,1.94-5.04,2.91-10.29,2.91-15.74,0-11.28-3.61-20.83-10.82-28.64Z"/><path class="i" d="M829.95,110.16c8.88-5.55,18.56-8.32,29.06-8.32s20.18,2.77,29.06,8.32c8.88,5.55,15.86,13.04,20.94,22.47,5.08,9.43,7.63,19.6,7.63,30.52,0,8.14-1.43,15.93-4.3,23.37-2.87,7.44-6.98,14.03-12.34,19.77-5.36,5.83-11.61,10.33-18.73,13.52-7.12,3.19-14.54,4.79-22.26,4.79s-15.14-1.6-22.26-4.79c-7.12-3.19-13.36-7.7-18.73-13.52-5.36-5.73-9.48-12.32-12.34-19.77-2.87-7.44-4.3-15.23-4.3-23.37,0-10.91,2.54-21.08,7.63-30.52,5.09-9.43,12.07-16.92,20.95-22.47Zm54.93,24.34c-7.21-7.81-15.84-11.72-25.87-11.72s-18.66,3.91-25.87,11.72c-7.21,7.82-10.82,17.36-10.82,28.64,0,5.46,.97,10.7,2.91,15.74,1.94,5.04,4.67,9.46,8.18,13.25,7.12,7.67,15.65,11.51,25.59,11.51s18.52-3.84,25.73-11.51c3.42-3.79,6.1-8.21,8.04-13.25,1.94-5.04,2.91-10.29,2.91-15.74,0-11.28-3.61-20.83-10.82-28.64Z"/><path class="i" d="M921.86,103.77h40.92c6.19,0,11.95,1.13,17.27,3.4,5.32,2.27,9.73,5.25,13.25,8.95,3.51,3.7,6.26,7.88,8.25,12.55,1.99,4.67,2.98,9.46,2.98,14.36s-.99,9.69-2.98,14.36c-1.99,4.67-4.74,8.88-8.25,12.62-3.52,3.74-7.93,6.73-13.25,8.95-5.32,2.22-11.07,3.33-17.27,3.33h-19.97v41.61h-20.94V103.77Zm20.94,57.56h19.97c7.4,0,12.71-1.71,15.95-5.13,3.24-3.42,4.86-7.79,4.86-13.11s-1.62-9.71-4.86-13.18c-3.24-3.47-8.55-5.2-15.95-5.2h-19.97v36.62Z"/><path class="i" d="M1076.18,144.69v20.94c-4.99,0-9.48,.32-13.45,.97-3.98,.65-6.96,1.32-8.95,2.01-1.99,.69-4.83,1.78-8.53,3.26-5.92,2.41-10.82,4.12-14.7,5.13v25.94h56.73v20.95h-77.67V103.77h74.9v20.94h-53.96v30.52c.92-.37,3.21-1.29,6.87-2.77,3.65-1.48,6.94-2.7,9.85-3.68,2.91-.97,7.01-1.89,12.27-2.77,5.27-.88,10.82-1.32,16.65-1.32Z"/><path class="i" d="M1098.38,103.77h20.94c0,5.92,.97,11.14,2.91,15.67,1.94,4.53,4.9,8.97,8.88,13.31,3.42,3.7,7.49,7.33,12.21,10.89,4.72,3.56,10.63,7.7,17.75,12.41,.46,.28,1.11,.69,1.94,1.25,13.13,8.69,22.56,15.77,28.29,21.22V103.77h20.95v120.12h-20.95c0-5.55-.95-10.45-2.84-14.7-1.9-4.25-4.83-8.46-8.81-12.62-2.31-2.5-5.27-5.15-8.88-7.98-3.61-2.82-6.8-5.2-9.57-7.14-2.77-1.94-6.66-4.58-11.65-7.91-4.72-3.05-8.3-5.41-10.75-7.07-2.45-1.67-5.6-4-9.43-7.01-3.84-3-7.19-5.89-10.06-8.67v73.1h-20.94V103.77Z"/><path class="i" d="M671.15,245.67c-9.34-7.03-21.55-10.54-36.62-10.54-16.74,0-30.01-.26-39.81-.76-9.8-.51-17.71-1.6-23.72-3.26-6.2-1.76-10.63-4.25-13.32-7.49-1.3-1.48-2.31-3.19-3.05-5.13,5.92-3.15,11.19-7.21,15.81-12.21,5.36-5.73,9.48-12.32,12.34-19.77,2.87-7.44,4.3-15.23,4.3-23.37,0-10.91-2.54-21.08-7.63-30.52-5.09-9.43-12.07-16.92-20.94-22.47-8.88-5.55-18.57-8.32-29.06-8.32s-20.18,2.77-29.06,8.32c-8.88,5.55-15.86,13.04-20.95,22.47-5.09,9.43-7.63,19.6-7.63,30.52,0,8.14,1.43,15.93,4.3,23.37,2.86,7.44,6.98,14.03,12.34,19.77,5.36,5.83,11.6,10.33,18.73,13.52,7.12,3.19,14.56,4.79,22.33,4.79,1.66,0,3.33-.09,4.99-.28,1.66,4.99,4.02,9.29,7.07,12.9,5.55,6.47,13.41,11.14,23.58,14.01,5.45,1.57,11.97,2.73,19.56,3.47,7.58,.74,14.19,1.15,19.83,1.25,5.64,.09,14.01,.14,25.11,.14h4.85c10.45,0,18.45,2.13,24,6.38,1.94,1.48,3.42,3.33,4.44,5.55l.14,.28h21.08c0-8.51-4.35-16.04-13.04-22.61Zm-141.69-42.03c-12.09,0-22.73-6.21-28.91-15.62-1.96-2.78-3.59-5.82-4.87-9.14-1.94-5.04-2.91-10.29-2.91-15.74,0-11.28,3.61-20.83,10.82-28.64,7.21-7.81,15.83-11.72,25.87-11.72s18.66,3.91,25.87,11.72c7.21,7.82,10.82,17.36,10.82,28.64,0,5.46-.97,10.7-2.91,15.74-1.54,4-3.56,7.6-6.03,10.82-.22,.3-.45,.59-.68,.88-.03,.04-.06,.07-.09,.11-6.34,7.9-16.06,12.96-26.97,12.96Z"/><g><path class="i" d="M748.57,175.15c-3.13-3.13-4.7-6.91-4.7-11.32s1.57-8.18,4.7-11.32c3.13-3.13,6.91-4.7,11.31-4.7s8.18,1.57,11.31,4.7c3.13,3.14,4.7,6.91,4.7,11.32s-1.57,8.18-4.7,11.32c-3.13,3.13-6.91,4.7-11.31,4.7s-8.18-1.57-11.31-4.7Z"/><path class="i" d="M847.69,174.53c-3.13-3.13-4.7-6.91-4.7-11.32s1.57-8.18,4.7-11.32c3.13-3.13,6.91-4.7,11.32-4.7s8.18,1.57,11.31,4.7c3.13,3.14,4.7,6.91,4.7,11.32s-1.57,8.18-4.7,11.32c-3.13,3.13-6.91,4.7-11.31,4.7s-8.18-1.57-11.32-4.7Z"/></g></g><g><rect class="i" x="0" y="0" width="396.74" height="329.17" rx="59.92" ry="59.92"/><g><g><path class="j" d="M132.77,233.73c37.15,0,62.16-32.23,80.42-55.77l2.6-3.35c1.7-2.18,3.37-4.35,5.04-6.51,17.28-22.43,28.6-36.18,43.13-36.18,16.31,0,29.58,13.27,29.58,29.58h42.65c0-39.83-32.4-72.23-72.23-72.23-36.25,0-57.86,28.05-76.92,52.8-1.61,2.1-3.24,4.21-4.89,6.32l-2.66,3.43c-13.57,17.49-30.47,39.27-46.72,39.27-16.31,0-29.58-13.27-29.58-29.58H60.54c0,39.83,32.4,72.23,72.23,72.23Z"/><path class="k" d="M149.28,184.65c10.76-7.77,21.22-21.24,30.22-32.84l2.66-3.43c1.65-2.11,3.27-4.22,4.89-6.32,7.01-9.11,14.38-18.66,22.68-27.09l30.12,30.12c-5.75,5.95-11.88,13.73-19.02,23-1.66,2.16-3.34,4.34-5.04,6.51l-2.6,3.35c-9.23,11.89-20.18,26-33.55,37.05l-30.37-30.37Z"/><path class="h" d="M263.97,233.73c39.83,0,72.23-32.4,72.23-72.23h-42.65c0,16.31-13.27,29.58-29.58,29.58-14.53,0-25.85-13.75-43.13-36.18-1.66-2.16-3.34-4.34-5.04-6.51l-2.6-3.35c-18.26-23.54-43.28-55.77-80.42-55.77-39.83,0-72.23,32.4-72.23,72.23h42.65c0-16.31,13.27-29.58,29.58-29.58,16.25,0,33.15,21.77,46.72,39.27l2.66,3.43c1.65,2.11,3.27,4.22,4.89,6.32,19.07,24.75,40.67,52.8,76.92,52.8Z"/></g><rect class="j" x="86.12" y="153.16" width="30.31" height="88.01" rx="15.16" ry="15.16" transform="translate(44.3 411.37) rotate(-137.92)"/></g></g></g><line class="l" x1="336.2" y1="161.5" x2="293.55" y2="161.5"/><line class="m" x1="103.19" y1="161.25" x2="60.54" y2="161.25"/></g></g></g></svg>
